<svg xmlns="http://www.w3.org/2000/svg" xmlns:xlink="http://www.w3.org/1999/xlink" version="1.1" width="128" height="128" viewBox="0 0 100 100">
	<defs>
		<g id="background">
			<path fill="url(#background-gradient)" stroke="none" d=" M 85.35 85.35 Q 100 70.65 100 50 100 29.3 85.35 14.7 70.65 0 50 0 29.3 0 14.6 14.7 0 29.3 0 50 0 70.65 14.6 85.35 29.3 100 50 100 70.65 100 85.35 85.35 Z"/>
		</g>
		<g id="middle-1">
			<path fill="#ffffff" fill-opacity="0.6" stroke="none" d=" M 84 84 Q 98.05 70 98.05 50 98.05 30.1 84 16.05 69.9 1.9 50 1.9 30.1 1.9 16.05 16.05 1.9 30.1 1.9 50 1.9 70 16.05 84 30.1 98.05 50 98.05 69.9 98.05 84 84 Z"/>
		</g>
		<mask id="mask">
			<path fill="#FFFFFF" stroke="none" d=" M 85.35 85.35 Q 100 70.65 100 50 100 29.3 85.35 14.7 70.65 0 50 0 29.3 0 14.6 14.7 0 29.3 0 50 0 70.65 14.6 85.35 29.3 100 50 100 70.65 100 85.35 85.35 Z"/>
		</mask>
		<linearGradient id="background-gradient" x1="0" y1="0" y2="1" x2="0">
			<stop stop-color="#6CD330" offset="0%"/>
			<stop stop-color="#6CD330" offset="100%"/>
		</linearGradient>
		<g transform="scale(0.4241530078128135) translate(-31.743003845214844 -28.980504989624023)" id="picture"><path
			d="M265.946 127.345l-32.788-54.647c-.78-1.562-1.561-2.342-3.123-3.123L153.53 30.541c-2.342-.78-4.684-.78-7.026 0L69.996 69.575c-1.561.78-3.122 1.561-3.903 3.123l-32.788 54.647c-1.562 3.904-.781 8.588 3.122 10.93 3.904 1.561 8.588.78 10.93-3.123l5.465-9.368H63.75v130.373c0 4.684 3.123 7.807 7.807 7.807h46.84c4.684 0 7.807-3.123 7.807-7.807v-48.402h46.84v48.402c0 4.684 3.123 7.807 7.808 7.807h46.84c4.684 0 7.807-3.123 7.807-7.807V125.784h10.93l5.464 9.368c1.561 2.342 3.904 3.903 7.026 3.903 1.562 0 3.123 0 3.904-.78 3.903-2.342 4.684-7.026 3.122-10.93zm-38.253-17.175c-4.684 0-7.807 3.123-7.807 7.807V248.35H188.66v-48.402c0-4.684-3.122-7.807-7.806-7.807h-62.455c-4.684 0-7.806 3.123-7.806 7.807v48.402H79.365V117.977c0-4.684-3.123-7.807-7.807-7.807H62.19l16.394-27.323 71.041-36.692 71.042 35.911 16.394 27.324h-9.368v.78zm-97.584-2.342h39.033c2.342 0 3.904-1.561 3.904-3.903v-23.42c0-2.342-1.562-3.904-3.904-3.904H130.11c-2.343 0-3.904 1.562-3.904 3.904v23.42c0 2.342 1.561 3.903 3.904 3.903zm3.903-23.42h31.227v15.614h-31.227V84.408zm58.55 39.034h-31.226c-2.342 0-3.904 1.561-3.904 3.903v23.42c0 2.343 1.562 3.904 3.904 3.904h31.227c2.342 0 3.903-1.561 3.903-3.903v-23.42c0-2.343-1.561-3.904-3.903-3.904zm-3.903 23.42h-23.42V131.25h23.42v15.613zm-50.744-23.42h-31.227c-2.342 0-3.903 1.561-3.903 3.903v23.42c0 2.343 1.561 3.904 3.903 3.904h31.227c2.342 0 3.904-1.561 3.904-3.903v-23.42c0-2.343-1.562-3.904-3.904-3.904zm-3.903 23.42h-23.42V131.25h23.42v15.613z"/></g>
		<linearGradient id="picture-gradient" x1="0" y1="0" y2="1" x2="0">
			<stop stop-color="#ff762d" offset="0%"/>
			<stop stop-color="#e44e4e" offset="100%"/>
		</linearGradient>
	</defs>
	<use xlink:href="#background" fill="url(#background-gradient)"/>
	<use xlink:href="#middle-1"/>
	<g mask="url(#mask)">
		<g transform="translate(50 50) translate(0 0) scale(0.675) translate(-50 -50)">
			<use xlink:href="#picture" fill="url(#picture-gradient)"/>
		</g>
	</g>
</svg>
