<svg xmlns="http://www.w3.org/2000/svg" xmlns:xlink="http://www.w3.org/1999/xlink" version="1.1" width="128" height="128" viewBox="0 0 100 100">
  <defs>
    <g id="background">
      <path fill="url(#background-gradient)" stroke="none" d=" M 85.35 85.35 Q 100 70.65 100 50 100 29.3 85.35 14.7 70.65 0 50 0 29.3 0 14.6 14.7 0 29.3 0 50 0 70.65 14.6 85.35 29.3 100 50 100 70.65 100 85.35 85.35 Z"/>
    </g>
    <g id="middle-1">
      <path fill="#ffffff" fill-opacity="0.6" stroke="none" d=" M 84 84 Q 98.05 70 98.05 50 98.05 30.1 84 16.05 69.9 1.9 50 1.9 30.1 1.9 16.05 16.05 1.9 30.1 1.9 50 1.9 70 16.05 84 30.1 98.05 50 98.05 69.9 98.05 84 84 Z"/>
    </g>
    <mask id="mask">
      <path fill="#FFFFFF" stroke="none" d=" M 85.35 85.35 Q 100 70.65 100 50 100 29.3 85.35 14.7 70.65 0 50 0 29.3 0 14.6 14.7 0 29.3 0 50 0 70.65 14.6 85.35 29.3 100 50 100 70.65 100 85.35 85.35 Z"/>
    </mask>
    <linearGradient id="background-gradient" x1="0" y1="0" y2="1" x2="0">
      <stop stop-color="#6CD330" offset="0%"/>
      <stop stop-color="#6CD330" offset="100%"/>
    </linearGradient>
    <g transform="scale(3.1055899885286604) translate(0.10000000149011612 0.15000134706497192)" id="picture"><path
      d="M20 13a1 1 0 1 1-2 0 1 1 0 1 1 2 0zm-6 0a1 1 0 1 1-2 0 1 1 0 1 1 2 0z M31.9 12c-.8-1.7-2.2-3.1-3.8-4-1.5-.8-2.8-1.3-4.7-1-.1 0-.1 0-.2.1-.4-.4-.8-.7-1.2-1h.1c2.2-.7 4.1-2.7 3.5-5.4-.1-.5-.6-.8-1.1-.7s-.9.7-.8 1.2c.4 1.6-1 2.6-2.2 3-.4.1-.8.2-1.4.3-.1 0-.4 0-.6.1h-.4s-.2.1-.3.1c-1-.3-2-.4-2.8-.4-.8 0-1.8.1-2.8.4-.1 0-.2-.1-.3-.1h-.4c-.2 0-.4 0-.6-.1-.5-.1-1-.2-1.4-.3-1.2-.4-2.6-1.4-2.2-3C8.4.7 8.1.1 7.5 0 7-.1 6.5.2 6.3.8c-.6 2.7 1.4 4.6 3.6 5.3h.1c-.4.3-.8.6-1.1.9-1.7-.1-3.6.3-5 1.1C2.3 9 .9 10.4.1 12c-.2.4-.1.8.2 1.1.9.9 2.1 1.5 3.4 1.7.2.2.4.2.7.2.9 0 1.8-.2 2.6-.5 0 2.6 1 4.9 2.6 6.7.1.1.3.2.4.4 0 .8.1 1.9.1 3 0 1.2.1 2.5.1 3.3 0 .7.1 1.8.7 2.6 1 1.3 3 1.5 4.1 1.5h2.1c1.1-.1 3-.2 4-1.5.7-.9.7-1.9.7-2.6 0-.8.1-2.1.1-3.3 0-1.1.1-2.2.1-3 .1-.1.3-.2.4-.4 1.6-1.8 2.6-4.1 2.6-6.7.8.3 1.8.5 2.6.5.3 0 .5 0 .7-.1 1.3-.2 2.4-.8 3.4-1.7.3-.3.4-.8.2-1.2zM4 12.9c-.6-.1-1.2-.3-1.7-.7.6-1 1.5-1.9 2.6-2.4.7-.4 1.7-.7 2.7-.8-.4 1.1-.6 2.2-.6 3.4-.8.4-2.3.7-3 .5zm15.9 11.6c0 1.3-.1 2.5-.1 3.3 0 .6-.1 1.1-.3 1.5-.4.5-1.5.6-2.5.7h-1.9c-1.1-.1-2.2-.2-2.6-.7-.2-.3-.3-.8-.3-1.5 0-.8-.1-2-.1-3.2v-1.9c1.2.3 2.4.3 3.6.3h.9c1.1 0 2.3 0 3.3-.3v1.8zM23 14.4c0 2.1-.7 4.1-2.1 5.5-1.1 1.1-2.6 1.1-4.6 1.1h-.6c-2 0-3.5 0-4.6-1.1C9.7 18.4 9 16.5 9 14.4v-.5c0-2.1 0-4 1.1-5.2 1.3-1.4 4.1-2.3 5.9-2.3s4.6.9 5.9 2.3c1.1 1.2 1.1 3 1.1 5.2v.5zm5-1.5c-.8.1-2.2-.2-3-.6 0-1.2-.2-2.3-.6-3.4.9 0 1.7.2 2.8.8 1 .6 1.9 1.4 2.6 2.4-.6.5-1.2.8-1.8.8z M17.5 27.5c.3 0 .5-.2.5-.5v-1c0-.3-.2-.5-.5-.5s-.5.2-.5.5v1c0 .3.2.5.5.5zm-3-2c-.3 0-.5.2-.5.5v1c0 .3.2.5.5.5s.5-.2.5-.5v-1c0-.3-.2-.5-.5-.5z"/></g>
    <linearGradient id="picture-gradient" x1="0" y1="0" y2="1" x2="0">
      <stop stop-color="#ff762d" offset="0%"/>
      <stop stop-color="#e44e4e" offset="100%"/>
    </linearGradient>
  </defs>
  <use xlink:href="#background" fill="url(#background-gradient)"/>
  <use xlink:href="#middle-1"/>
  <g mask="url(#mask)">
    <g transform="translate(50 50) translate(0 0) scale(0.6750000000000002) translate( -50 -50 )">
      <use xlink:href="#picture" fill="url(#picture-gradient)"/>
    </g>
  </g>
</svg>
